<svg xmlns="http://www.w3.org/2000/svg" xmlns:xlink="http://www.w3.org/1999/xlink" width="100" zoomAndPan="magnify" viewBox="0 0 75 74.999997" height="100" preserveAspectRatio="xMidYMid meet" version="1.0"><defs><clipPath id="dee7194829"><path d="M 1.976562 0 L 73.226562 0 L 73.226562 72 L 1.976562 72 Z M 1.976562 0 " clip-rule="nonzero"/></clipPath></defs><g clip-path="url(#dee7194829)"><path fill="#00c2ff" d="M 15.789062 8.261719 C 12.519531 8.261719 9.871094 10.910156 9.871094 14.179688 C 9.871094 17.449219 12.519531 20.101562 15.789062 20.101562 C 19.058594 20.101562 21.710938 17.449219 21.710938 14.179688 C 21.710938 10.910156 19.058594 8.261719 15.789062 8.261719 Z M 1.976562 14.179688 C 1.976562 6.550781 8.160156 0.367188 15.789062 0.367188 C 23.417969 0.367188 29.605469 6.550781 29.605469 14.179688 C 29.605469 20.4375 25.441406 25.722656 19.738281 27.421875 L 19.738281 53.644531 L 37.496094 53.644531 L 37.496094 61.539062 L 11.84375 61.539062 L 11.84375 27.421875 C 6.136719 25.722656 1.976562 20.4375 1.976562 14.179688 Z M 37.496094 10.234375 L 63.148438 10.234375 L 63.148438 44.351562 C 68.855469 46.050781 73.015625 51.335938 73.015625 57.59375 C 73.015625 65.222656 66.832031 71.40625 59.203125 71.40625 C 51.574219 71.40625 45.390625 65.222656 45.390625 57.59375 C 45.390625 51.335938 49.550781 46.050781 55.257812 44.351562 L 55.257812 18.125 L 37.496094 18.125 Z M 59.203125 51.671875 C 55.933594 51.671875 53.285156 54.324219 53.285156 57.59375 C 53.285156 60.863281 55.933594 63.511719 59.203125 63.511719 C 62.472656 63.511719 65.125 60.863281 65.125 57.59375 C 65.125 54.324219 62.472656 51.671875 59.203125 51.671875 Z M 59.203125 51.671875 " fill-opacity="1" fill-rule="evenodd"/></g></svg>
